<?xml version="1.0" encoding="UTF-8"?>
<svg version="1.1" xmlns="http://www.w3.org/2000/svg" width="1024" height="1024">
<!-- Arka plan path kald覺r覺ld覺, SVG art覺k transparan -->
<path d="M0 0 C1.48011872 1.39482375 2.95936151 2.79057791 4.4375 4.1875 C5.82893109 5.38015522 7.22458794 6.56790313 8.625 7.75 C12.63295111 11.2629452 16.06223969 15.06887878 19.4375 19.1875 C20.69046875 20.70150391 20.69046875 20.70150391 21.96875 22.24609375 C52.84337796 60.14493334 65.03889189 106.30104971 60.9753418 154.70092773 C58.30030214 179.7674694 48.90325829 203.36258059 36.54833984 225.14868164 C35.32036401 227.30429077 35.32036401 227.30429077 34.23828125 230.21484375 C31.60149426 233.10329805 29.1156337 232.90555581 25.31689453 233.1340332 C23.89159424 233.19143677 23.89159424 233.19143677 22.4375 233.25 C1.19048216 234.64915986 -17.9960641 240.74419351 -37.85986328 248.02539062 C-54.83435699 254.23180815 -71.66605437 260.29919941 -89.5625 263.1875 C-90.27470703 263.30319336 -90.98691406 263.41888672 -91.72070312 263.53808594 C-112.25354302 266.69770559 -133.19750651 266.11043227 -153.5625 262.1875 C-154.30016602 262.05311523 -155.03783203 261.91873047 -155.79785156 261.78027344 C-169.37540751 259.20595422 -182.13615503 254.13634806 -195.02886963 249.30169678 C-222.70273154 238.56598426 -222.70273154 238.56598426 -251.88452148 234.13916016 C-254.2624453 234.05075424 -256.28311471 233.87749548 -258.5625 233.1875 C-260.68118553 230.71086303 -261.78640405 229.04651367 -263.125 226.1875 C-263.49085205 225.47126465 -263.8567041 224.7550293 -264.23364258 224.01708984 C-265.37631994 221.75536145 -266.46901745 219.47333864 -267.5625 217.1875 C-268.27104196 215.78264341 -268.98192514 214.3789648 -269.6953125 212.9765625 C-290.19130242 171.93636815 -293.62503879 123.1941404 -279.71044922 79.51269531 C-271.62234399 55.64687316 -259.37966287 33.96930312 -241.95703125 15.69921875 C-239.99981032 13.64621213 -238.17037289 11.56719385 -236.375 9.375 C-226.51130857 -2.21623061 -212.63266652 -11.28725261 -199.5625 -18.8125 C-198.43585938 -19.46992188 -197.30921875 -20.12734375 -196.1484375 -20.8046875 C-177.48223461 -31.39825333 -156.79764135 -37.95102705 -135.5625 -40.8125 C-134.76714844 -40.92464844 -133.97179687 -41.03679687 -133.15234375 -41.15234375 C-86.16783822 -46.58795216 -35.32887438 -31.70955544 0 0 Z " fill="#F79305" transform="translate(625.5625,339.8125)"/>
<path d="M0 0 C0.72537964 -0.00067474 1.45075928 -0.00134949 2.19812012 -0.00204468 C14.73113554 0.016367 26.86280236 0.83353378 39.1875 3.25 C40.02539062 3.41097168 40.86328125 3.57194336 41.7265625 3.73779297 C62.27092602 7.82546163 81.7677373 15.2933189 101 23.4375 C150.24215345 44.25595311 194.9451754 40.43704514 243.74414062 20.65332031 C245.95195224 19.75354003 248.15904996 18.85200489 250.36523438 17.94824219 C267.44616122 10.96259522 285.1501178 4.21346135 303.83984375 4.01171875 C304.57586319 4.003647 305.31188263 3.99557526 306.07020569 3.98725891 C307.63263645 3.9734694 309.19509668 3.96272444 310.75756836 3.95483398 C312.30551428 3.94350015 313.85342728 3.92335806 315.40112305 3.89331055 C337.70339745 3.46224402 358.89165278 8.92284317 380.375 14.375 C383.59128431 15.18701896 386.8081523 15.99647669 390.02644348 16.80050659 C392.00121911 17.2942323 393.97487551 17.79246928 395.94706726 18.29641724 C406.42971049 20.92539594 416.67758784 22.62482608 427.5 22.5625 C428.99104248 22.55730347 428.99104248 22.55730347 430.51220703 22.55200195 C441.22184268 22.39504292 451.31732369 20.66160627 461.35546875 16.80078125 C463.1875 16.25 463.1875 16.25 467.1875 16.25 C464.02291906 27.50184336 451.43308277 35.97482439 441.80761719 41.39916992 C419.03048575 53.62433644 394.92493662 53.15802296 369.95901489 50.96057129 C333.37623597 47.57764162 333.37623597 47.57764162 297.1875 52.25 C296.49769043 52.41145508 295.80788086 52.57291016 295.09716797 52.73925781 C281.84083804 55.91646891 269.498843 61.38238348 256.99865723 66.69802856 C233.89156761 76.50499653 209.09647682 85.22665878 183.71875 85.48828125 C182.92950134 85.49812042 182.14025269 85.50795959 181.3270874 85.51809692 C163.56175602 85.69379513 146.56623982 85.34581756 129.1875 81.25 C128.20716797 81.02989258 127.22683594 80.80978516 126.21679688 80.58300781 C101.1169738 74.86980999 76.75838274 66.16753005 52.39453125 57.953125 C-2.3875137 39.48892388 -55.86099762 30.06011963 -112.6953125 45.62426758 C-118.63287833 47.25 -118.63287833 47.25 -120.8125 47.25 C-119.64229545 40.6188409 -113.62280834 36.69574058 -108.4375 32.9375 C-96.21665075 24.69768498 -83.57023623 17.56728598 -69.8125 12.25 C-69.13703125 11.98735352 -68.4615625 11.72470703 -67.765625 11.45410156 C-45.97576136 3.17026713 -23.19955583 0.01954609 0 0 Z " fill="#09315D" transform="translate(340.8125,587.75)"/>
<path d="M0 0 C45.61902086 20.84378706 87.47907935 22.1142479 134.49902344 4.83691406 C138.54908457 3.29661135 142.55442182 1.65271231 146.5637207 0.00976562 C155.48321107 -3.64442975 164.34969273 -7.08284088 173.62451172 -9.73291016 C174.42880615 -9.96373291 175.23310059 -10.19455566 176.06176758 -10.43237305 C187.60625038 -13.57935064 198.79935815 -14.60851655 210.74951172 -14.54541016 C211.45066101 -14.54391968 212.1518103 -14.5424292 212.87420654 -14.54089355 C226.83081404 -14.48780702 240.10677243 -12.87900804 253.77685547 -10.14306641 C270.05452646 -6.9213552 285.43359165 -5.33321394 301.65966797 -9.67431641 C304.31201172 -10.23291016 304.31201172 -10.23291016 307.31201172 -9.23291016 C293.68899154 5.26901455 275.4474565 13.01014202 255.61181641 13.94067383 C254.23591655 13.96887458 252.85992509 13.99283439 251.48388672 14.01318359 C249.95507002 14.04444659 248.42626164 14.0761184 246.89746094 14.1081543 C246.10692322 14.12351227 245.3163855 14.13887024 244.50189209 14.1546936 C213.29422677 14.79289914 186.20675977 19.18670927 157.81201172 32.57958984 C107.06614446 56.45673514 56.20661383 61.6679809 2.93701172 42.89599609 C-11.76118613 37.47577392 -25.92928067 30.64082927 -39.97949219 23.74438477 C-79.65394897 4.29505904 -118.50926668 -5.14129627 -162.68798828 -1.23291016 C-162.68798828 -1.89291016 -162.68798828 -2.55291016 -162.68798828 -3.23291016 C-115.62246379 -41.02493088 -48.74310393 -22.35719118 0 0 Z " fill="#09315D" transform="translate(439.68798828125,688.23291015625)"/>
<path d="M0 0 C1.32640755 -0.00262848 1.32640755 -0.00262848 2.67961121 -0.00531006 C5.58696492 -0.00968955 8.49425705 -0.00680103 11.40161133 -0.00341797 C13.44737255 -0.0040929 15.4931337 -0.00506451 17.53889465 -0.00631714 C21.82834638 -0.0077895 26.11777726 -0.00565725 30.40722656 -0.00097656 C35.84405051 0.00467345 41.28082455 0.00146906 46.7176466 -0.00454903 C50.94847471 -0.00820751 55.17929151 -0.00699134 59.41012001 -0.00442123 C61.41071898 -0.00376402 63.41131905 -0.00453709 65.41191673 -0.00690079 C75.80389203 -0.01647251 86.1823534 0.09655418 96.56689453 0.51269531 C97.4657371 0.54303801 98.36457968 0.5733807 99.2906599 0.60464287 C100.52891757 0.66174525 100.52891757 0.66174525 101.79219055 0.72000122 C102.51936437 0.7505768 103.24653818 0.78115238 103.99574757 0.8126545 C105.79614258 1.12939453 105.79614258 1.12939453 107.79614258 3.12939453 C107.9709322 5.69198818 108.03095815 8.13220918 107.98364258 10.69189453 C107.97502197 11.4126416 107.96640137 12.13338867 107.95751953 12.87597656 C107.87129246 18.02298058 107.75749475 23.06044669 106.79614258 28.12939453 C103.00771785 30.65501102 100.01080928 30.38331026 95.62817383 30.32470703 C94.43595467 30.32046219 94.43595467 30.32046219 93.21965027 30.31613159 C90.6824942 30.30494158 88.14569186 30.27983944 85.60864258 30.25439453 C83.88794455 30.24436319 82.16724099 30.23523761 80.4465332 30.22705078 C76.22960015 30.20500614 72.01293133 30.17048459 67.79614258 30.12939453 C67.72266602 31.52037354 67.72266602 31.52037354 67.64770508 32.93945312 C67.02013809 43.91781779 65.96760081 54.82219406 64.79614258 65.75439453 C63.19296243 80.77914419 61.62960335 95.75213008 61.54614258 110.87939453 C61.52551758 111.82943359 61.50489258 112.77947266 61.48364258 113.75830078 C61.4412097 121.51291015 62.45960701 128.65999323 66.85864258 135.19189453 C71.69910009 138.38453672 76.53500076 138.68617484 82.19848633 137.71923828 C90.23468567 135.42514377 94.88646103 131.00335021 98.92114258 123.81689453 C99.57469727 122.52332031 99.57469727 122.52332031 100.24145508 121.20361328 C101.79614258 119.12939453 101.79614258 119.12939453 104.47583008 118.33642578 C105.2415332 118.26810547 106.00723633 118.19978516 106.79614258 118.12939453 C106.97575687 124.00344701 106.42078783 129.22143405 105.10864258 134.94189453 C104.92930176 135.72870605 104.74996094 136.51551758 104.56518555 137.32617188 C101.78886987 148.90961749 97.26063642 159.96374689 86.85864258 166.50439453 C79.42369929 170.57591109 72.25249988 172.36446777 63.79614258 171.12939453 C54.08886031 167.90589045 47.00343557 162.28149106 42.26879883 153.19970703 C39.69307801 147.33154307 37.80022797 141.45746759 36.79614258 135.12939453 C36.6852832 134.47197266 36.57442383 133.81455078 36.46020508 133.13720703 C34.10714578 116.28421473 36.61239187 98.93290181 38.17114258 82.12939453 C38.39577573 79.65940373 38.61973786 77.1893518 38.84301758 74.71923828 C39.17297732 71.06954611 39.50338122 67.41990318 39.83660889 63.77050781 C40.88836406 52.22859347 41.84833061 40.68029927 42.79614258 29.12939453 C30.91614258 29.12939453 19.03614258 29.12939453 6.79614258 29.12939453 C6.46614258 34.73939453 6.13614258 40.34939453 5.79614258 46.12939453 C5.33246243 52.1370232 4.75933787 58.13288138 4.17114258 64.12939453 C4.08921661 64.96981293 4.00729065 65.81023132 3.92288208 66.67611694 C2.38202881 82.34922598 0.58391243 97.99158977 -1.30535889 113.6262207 C-1.61043572 116.1513343 -1.91324532 118.67672294 -2.21368408 121.20239258 C-2.64091966 124.77938643 -3.07893272 128.35489669 -3.52026367 131.93017578 C-3.64521713 132.98497635 -3.77017059 134.03977692 -3.89891052 135.12654114 C-6.27936993 154.02568613 -6.27936993 154.02568613 -11.07885742 161.69189453 C-11.78655273 162.86945313 -11.78655273 162.86945313 -12.50854492 164.07080078 C-15.35618951 167.52865493 -18.80219759 169.40441526 -23.20385742 170.12939453 C-29.18390441 170.64253388 -34.12462591 170.67304443 -39.20385742 167.12939453 C-45.70960739 160.47234806 -48.08292458 153.20362513 -48.57885742 144.12939453 C-48.52981838 140.44056898 -48.45799576 139.46054448 -46.14135742 136.44189453 C-45.17198242 135.67876953 -44.20260742 134.91564453 -43.20385742 134.12939453 C-26.71006066 120.91834373 -23.47510664 96.30346561 -21.23266602 76.65917969 C-19.57045802 60.84775688 -18.40754154 44.98112739 -17.20385742 29.12939453 C-20.07264657 29.56848336 -22.93919712 30.01784397 -25.80541992 30.47314453 C-26.61052002 30.5952832 -27.41562012 30.71742188 -28.24511719 30.84326172 C-41.5128216 32.97689765 -49.9779636 39.93237674 -59.20385742 49.12939453 C-59.81100586 49.73396484 -60.4181543 50.33853516 -61.04370117 50.96142578 C-61.42655273 51.34685547 -61.8094043 51.73228516 -62.20385742 52.12939453 C-63.19385742 51.79939453 -64.18385742 51.46939453 -65.20385742 51.12939453 C-64.77003001 38.76531325 -59.5202567 27.1850293 -51.20385742 18.12939453 C-50.45749023 17.21287109 -50.45749023 17.21287109 -49.69604492 16.27783203 C-37.72225423 2.61928687 -17.14701703 -0.04247292 0 0 Z " fill="#0A2D5D" transform="translate(488.203857421875,381.87060546875)"/>
<path d="M0 0 C6.64433187 2.96874403 10.01011241 9.15370638 14 15 C14.83257833 16.20364759 15.66594302 17.40675155 16.5 18.609375 C18.83508707 21.9845746 21.15392801 25.3706446 23.46875 28.75976562 C25.64217693 31.93951139 27.82257066 35.11446456 30.00244141 38.28979492 C31.66107978 40.71142617 33.31121918 43.13869293 34.9609375 45.56640625 C36.80257869 48.27128075 38.67253568 50.94666978 40.6015625 53.58984375 C46.46724086 61.80801149 46.46724086 61.80801149 46.75 66.375 C45.62570332 71.8091006 43.60725293 74.92849805 39 78 C36.6953125 78.30078125 36.6953125 78.30078125 34.125 78.3125 C33.28195312 78.32925781 32.43890625 78.34601563 31.5703125 78.36328125 C26.92742855 77.70706817 24.6285796 75.8264866 21.81640625 72.12890625 C21.05551515 70.94621866 20.30486516 69.75690327 19.5625 68.5625 C18.6847072 67.19896278 17.80436038 65.83706738 16.921875 64.4765625 C16.21708008 63.38649902 16.21708008 63.38649902 15.49804688 62.27441406 C12.85843366 58.26681356 10.07997205 54.35737619 7.3125 50.4375 C2.04805394 42.95455994 -3.15555565 35.43245212 -8.3125 27.875 C-8.96500732 26.92036865 -9.61751465 25.9657373 -10.28979492 24.98217773 C-11.19242065 23.65682007 -11.19242065 23.65682007 -12.11328125 22.3046875 C-12.64735596 21.52077637 -13.18143066 20.73686523 -13.73168945 19.92919922 C-16.23224296 16.12566239 -16.38170276 13.58043313 -16 9 C-12.32317126 1.9187002 -8.0382172 -0.98714948 0 0 Z " fill="#F89206" transform="translate(361,232)"/>
<path d="M0 0 C2.96260319 1.81189251 5.42159878 3.84319756 7 7 C8.21318586 15.35750261 5.27001014 19.51810123 0.37792969 26.12109375 C-1.7201773 28.98201356 -3.73413826 31.90033652 -5.75952148 34.81298828 C-7.53866998 37.36803419 -9.32913742 39.91486126 -11.12109375 42.4609375 C-13.86504743 46.36755949 -16.58205467 50.29156759 -19.28515625 54.2265625 C-19.99800781 55.26127686 -20.71085938 56.29599121 -21.4453125 57.36206055 C-22.82836639 59.37109305 -24.2074528 61.38286421 -25.58203125 63.39770508 C-28.76649708 68.01380512 -31.84038609 72.2276872 -36 76 C-36.33 76.33 -36.66 76.66 -37 77 C-42.4306107 77.6378234 -46.63199316 78.01232506 -51.125 74.6875 C-53.87761027 70.74209195 -54.55062112 67.30130859 -54.48681641 62.58642578 C-53.48305393 57.25349714 -49.88247914 53.19258745 -46.6875 48.9375 C-45.20794362 46.89351121 -43.72877822 44.84923934 -42.25 42.8046875 C-41.52167969 41.81307617 -40.79335938 40.82146484 -40.04296875 39.79980469 C-37.34713066 36.10526941 -34.75867515 32.34428809 -32.1875 28.5625 C-31.32456353 27.30705461 -30.4612855 26.05184392 -29.59765625 24.796875 C-27.7384705 22.08665853 -25.8956696 19.3658714 -24.05859375 16.640625 C-23.56786377 15.91673584 -23.07713379 15.19284668 -22.5715332 14.44702148 C-21.63971355 13.07201739 -20.7121252 11.69413147 -19.78979492 10.31274414 C-14.52777244 2.56752004 -10.03669976 -2.82163824 0 0 Z " fill="#F89206" transform="translate(672,233)"/>
<path d="M0 0 C1.99141083 0.74894151 3.93738612 1.56469465 5.88619995 2.41824341 C6.96935989 2.87513046 6.96935989 2.87513046 8.07440186 3.34124756 C10.4008338 4.32554918 12.71973389 5.32628967 15.0385437 6.32839966 C16.64627586 7.01485467 18.25443389 7.70031308 19.86300659 8.38479614 C22.27925734 9.41314625 24.69508809 10.44236646 27.10890198 11.47642517 C31.88137525 13.517573 36.67257128 15.48978703 41.4994812 17.39871216 C42.59768188 17.83707397 43.69588257 18.27543579 44.82736206 18.7270813 C46.82320443 19.52014484 48.82378943 20.3014191 50.82980347 21.06838989 C56.3979021 23.31017118 59.72338554 25.26529695 62.9760437 30.39089966 C64.21161335 34.99550706 63.3578824 38.64085936 61.2260437 42.82839966 C58.66883405 45.74077732 56.76433645 47.12463078 52.91261292 47.69813538 C47.12837003 47.74295103 42.80442486 46.56583204 37.55807495 44.20730591 C36.78601715 43.87627869 36.01395935 43.54525146 35.21850586 43.20419312 C32.73501203 42.1356585 30.26192969 41.04510044 27.7885437 39.95339966 C26.08098507 39.21246059 24.37272868 38.47312756 22.66378784 37.73538208 C20.12136789 36.63773281 17.57944038 35.53912183 15.04017639 34.43418884 C10.30938646 32.37872599 5.56340569 30.39291407 0.7651062 28.50027466 C-0.24656616 28.10122925 -1.25823853 27.70218384 -2.30056763 27.29104614 C-4.09362321 26.59101437 -5.89011934 25.89969986 -7.69070435 25.2192688 C-12.43986695 23.34672505 -15.77507129 21.50742062 -19.0239563 17.39089966 C-20.56352234 13.13488777 -20.32973132 9.34419825 -18.9614563 5.07839966 C-13.6631318 -2.27088916 -8.11927536 -2.44345859 0 0 Z " fill="#F79106" transform="translate(266.0239562988281,355.6091003417969)"/>
<path d="M0 0 C3.75092809 1.6308383 5.92320551 3.49490435 8 7 C8.29467267 9.53310402 8.42060679 11.81977019 8.40405273 14.35131836 C8.41091599 15.08514236 8.41777924 15.81896637 8.42485046 16.57502747 C8.44312727 18.99683064 8.43927982 21.41798651 8.43359375 23.83984375 C8.43815527 25.52608959 8.44346076 27.21233356 8.44947815 28.89857483 C8.45841105 32.43172765 8.45598431 35.96465446 8.44604492 39.49780273 C8.43455713 44.02185733 8.45476241 48.54513119 8.48396206 53.06908321 C8.50232349 56.5512842 8.50203171 60.0332981 8.49632454 63.51553535 C8.4961713 65.18327492 8.50221746 66.85102715 8.51461601 68.51872063 C8.52952312 70.85273838 8.51885258 73.18531396 8.50170898 75.51928711 C8.51137695 76.20568268 8.52104492 76.89207825 8.53100586 77.59927368 C8.45852743 82.32031744 7.30800669 84.67151861 4 88 C0.11420968 90.44249677 -3.44627617 90.16252134 -7.84375 89.546875 C-10.97171612 88.75355026 -12.80925189 87.32766986 -15 85 C-16.17502806 81.47491582 -16.14147913 78.66715819 -16.16113281 74.94580078 C-16.16858017 73.87454453 -16.16858017 73.87454453 -16.17617798 72.78164673 C-16.19078048 70.41952551 -16.1975982 68.05747144 -16.203125 65.6953125 C-16.20887779 64.05248004 -16.21463551 62.40964761 -16.22039795 60.76681519 C-16.23090233 57.32191658 -16.23674875 53.87704127 -16.24023438 50.43212891 C-16.24571957 46.02142616 -16.26975033 41.61103205 -16.29820633 37.2004261 C-16.31684414 33.80662134 -16.3220389 30.41289077 -16.32357025 27.01903915 C-16.32659446 25.39315986 -16.33461522 23.7672818 -16.34775543 22.14145279 C-16.3648411 19.86506 -16.36292996 17.58941946 -16.35644531 15.31298828 C-16.36009094 14.0185379 -16.36373657 12.72408752 -16.36749268 11.39041138 C-15.88720245 6.95935316 -14.30129546 4.45144494 -11.375 1.1875 C-7.65159601 -0.674202 -4.07912568 -0.53999159 0 0 Z " fill="#F89105" transform="translate(516,183)"/>
<path d="M0 0 C3.60936037 1.92721163 5.68393892 4.05181676 7 8 C7.55968855 14.82820029 7.55968855 14.82820029 5.58203125 18.96875 C2.0680248 23.09411915 -1.69283413 24.61765872 -6.625 26.6875 C-7.58341797 27.10612305 -8.54183594 27.52474609 -9.52929688 27.95605469 C-12.67796942 29.32411954 -15.83766878 30.66383702 -19 32 C-21.24752192 32.95934009 -23.49491625 33.91897913 -25.7421875 34.87890625 C-30.18222638 36.76994507 -34.62931641 38.64292992 -39.08203125 40.50390625 C-42.57974149 41.96879707 -46.05938221 43.45853446 -49.51171875 45.02734375 C-50.14980469 45.31448242 -50.78789063 45.60162109 -51.4453125 45.89746094 C-53.02396809 46.61334231 -54.59635937 47.34299813 -56.16796875 48.07421875 C-59.6112351 49.19981065 -62.39767059 49.26964805 -66 49 C-70.33729795 46.74794145 -73.13397371 44.5613976 -75 40 C-75.74603064 34.86067784 -75.66322608 33.03877333 -72.84765625 28.62890625 C-68.08442974 23.37302883 -61.32579273 21.32443633 -54.875 18.8125 C-52.79366394 17.97966224 -50.71479792 17.14085168 -48.63597107 16.30177307 C-47.21485282 15.72880359 -45.79277406 15.15821093 -44.36976624 14.58995056 C-39.55779932 12.66109786 -34.80964227 10.61875221 -30.08203125 8.4921875 C-28.82377859 7.93112578 -27.56547867 7.37017005 -26.30712891 6.80932617 C-23.9533283 5.75467236 -21.60496987 4.68775791 -19.26318359 3.60668945 C-12.88243676 0.78331199 -7.04108087 -1.37563534 0 0 Z " fill="#F79106" transform="translate(770,355)"/>
<path d="M0 0 C1.89376812 0.35606541 3.78764787 0.71153766 5.68164062 1.06640625 C10.97977747 2.0632214 16.27218361 3.08755997 21.5625 4.125 C22.30191833 4.26838806 23.04133667 4.41177612 23.80316162 4.55950928 C25.76247045 4.94218277 27.71923699 5.33780893 29.67578125 5.734375 C30.73708252 5.94803711 31.79838379 6.16169922 32.8918457 6.38183594 C37.81359404 7.75141286 40.34785687 10.1181983 43 14.5 C43.88406678 18.62564496 43.75345514 22.20313376 41.48046875 25.87109375 C39.32783997 28.5830158 37.88058911 30.0189703 34.5625 31.125 C27.60557404 31.4369297 21.24442585 30.56065243 14.421875 29.26171875 C13.37783508 29.06906937 12.33379517 28.87641998 11.25811768 28.67793274 C9.05891091 28.27057682 6.86041016 27.85939258 4.66259766 27.44458008 C1.33777099 26.81726801 -1.98903143 26.20152766 -5.31640625 25.58789062 C-11.36345109 24.46707378 -17.40197222 23.30610145 -23.4375 22.125 C-24.18362549 21.98209534 -24.92975098 21.83919067 -25.69848633 21.69195557 C-27.52610424 21.3378949 -29.34929628 20.96117896 -31.171875 20.58203125 C-32.09709961 20.39229736 -33.02232422 20.20256348 -33.97558594 20.00708008 C-37.65626113 18.68832964 -40.66537343 16.66925315 -42.4375 13.125 C-42.93937235 8.73720177 -43.44475149 4.13950297 -41.42578125 0.1015625 C-33.03288942 -10.23202804 -11.27367818 -2.15811237 0 0 Z " fill="#F89206" transform="translate(751.4375,501.875)"/>
<path d="M0 0 C3.92333979 3.44488372 4.45870518 4.94218532 4.875 10.1875 C4.76257433 13.96781322 4.02669347 16.2759734 1.5625 19.25 C-1.98174104 21.68969062 -5.07643292 22.82954803 -9.27832031 23.67626953 C-10.4301178 23.91306427 -11.58191528 24.14985901 -12.76861572 24.39382935 C-14.00512878 24.63769379 -15.24164185 24.88155823 -16.515625 25.1328125 C-18.43734528 25.52241653 -18.43734528 25.52241653 -20.39788818 25.91989136 C-23.10673036 26.46856994 -25.8167321 27.01093018 -28.52783203 27.54833984 C-31.98026892 28.2328459 -35.4302172 28.92900562 -38.87944412 29.62948799 C-42.19473645 30.30193981 -45.51142515 30.96733581 -48.828125 31.6328125 C-50.05654114 31.8807254 -51.28495728 32.12863831 -52.55059814 32.38406372 C-70.11710074 35.86129595 -70.11710074 35.86129595 -74.8125 33.6875 C-78.28368029 30.46426116 -80.2831822 27.89678404 -80.56640625 23.0390625 C-80.34163993 18.93877993 -80.04509058 16.96967514 -77.31469727 13.7355957 C-74.00799421 10.87895219 -71.83179831 10.17796879 -67.58984375 9.234375 C-66.9049437 9.07821716 -66.22004364 8.92205933 -65.51438904 8.76116943 C-63.15989083 8.23398433 -60.80007234 7.73968696 -58.4375 7.25 C-57.55555969 7.06348877 -56.67361938 6.87697754 -55.76495361 6.68481445 C-49.87612712 5.44392474 -43.97768961 4.2584254 -38.0715332 3.10302734 C-34.97873686 2.49582545 -31.8888445 1.87508127 -28.79882812 1.25390625 C-26.80484991 0.86115372 -24.81071456 0.46919791 -22.81640625 0.078125 C-21.90685684 -0.1061908 -20.99730743 -0.29050659 -20.06019592 -0.48040771 C-6.19025066 -3.15140033 -6.19025066 -3.15140033 0 0 Z " fill="#F89106" transform="translate(310.4375,496.75)"/>
<path d="M0 0 C1.32 0 2.64 0 4 0 C4 2.64 4 5.28 4 8 C3.01 7.979375 2.02 7.95875 1 7.9375 C-3.9745912 8.57319827 -6.18643732 12.21146311 -9.10546875 15.96875 C-11.11467701 18.12295267 -12.12765769 18.64334552 -15 19 C-14.29875 18.34 -13.5975 17.68 -12.875 17 C-8.5553769 12.6803769 -5.02195625 7.72024508 -1.875 2.5 C-1.25625 1.675 -0.6375 0.85 0 0 Z " fill="#092564" transform="translate(591,500)"/>
<path d="M0 0 C1.65 0 3.3 0 5 0 C4.67 0.99 4.34 1.98 4 3 C-5.24 3 -14.48 3 -24 3 C-24 2.67 -24 2.34 -24 2 C-16.08 1.67 -8.16 1.34 0 1 C0 0.67 0 0.34 0 0 Z " fill="#103A64" transform="translate(521,706)"/>
<path d="M0 0 C0.33 0.66 0.66 1.32 1 2 C-1.13552597 5.20328895 -2.73232126 6.12108473 -6 8 C-6.66 8.66 -7.32 9.32 -8 10 C-7.67 10.66 -7.34 11.32 -7 12 C-8.32 12.33 -9.64 12.66 -11 13 C-10.42400084 9.46616733 -9.1890605 7.83087229 -6.625 5.375 C-6.01914063 4.78460937 -5.41328125 4.19421875 -4.7890625 3.5859375 C-3 2 -3 2 0 0 Z " fill="#081B46" transform="translate(231,622)"/>
<path d="M0 0 C7.26 0 14.52 0 22 0 C22 0.33 22 0.66 22 1 C14.08 1.495 14.08 1.495 6 2 C6 2.33 6 2.66 6 3 C3.69 2.67 1.38 2.34 -1 2 C-0.67 1.34 -0.34 0.68 0 0 Z " fill="#153D66" transform="translate(657,700)"/>
<path d="M0 0 C1.32 1.65 2.64 3.3 4 5 C0.7 5.33 -2.6 5.66 -6 6 C-6 5.34 -6 4.68 -6 4 C-4.03852126 2.61061923 -2.03833424 1.2739589 0 0 Z " fill="#10234D" transform="translate(283,681)"/>
<path d="M0 0 C5.61 0 11.22 0 17 0 C16.67 0.99 16.34 1.98 16 3 C13.36 3 10.72 3 8 3 C8 2.67 8 2.34 8 2 C5.36 1.67 2.72 1.34 0 1 C0 0.67 0 0.34 0 0 Z " fill="#163B63" transform="translate(293,622)"/>
<path d="M0 0 C0.66 0.66 1.32 1.32 2 2 C4.65537372 2.56520003 7.29144713 2.73788198 10 3 C9.01 4.485 9.01 4.485 8 6 C5.69 5.67 3.38 5.34 1 5 C0.67 3.35 0.34 1.7 0 0 Z " fill="#193B64" transform="translate(284,680)"/>
<path d="M0 0 C-1.32 1.32 -2.64 2.64 -4 4 C-6.31 3.34 -8.62 2.68 -11 2 C-6.99642627 -0.14477164 -4.43233175 -1.47744392 0 0 Z " fill="#1D2E53" transform="translate(747,679)"/>
<path d="M0 0 C1.32 0 2.64 0 4 0 C4 1.98 4 3.96 4 6 C3.34 5.67 2.68 5.34 2 5 C2 4.34 2 3.68 2 3 C1.01 3 0.02 3 -1 3 C-1.33 3.66 -1.66 4.32 -2 5 C-1.125 1.125 -1.125 1.125 0 0 Z " fill="#0B206A" transform="translate(591,500)"/>
<path d="M0 0 C1.65 1.65 3.3 3.3 5 5 C4.34 5.66 3.68 6.32 3 7 C0.875 6.625 0.875 6.625 -1 6 C-0.67 4.02 -0.34 2.04 0 0 Z " fill="#E99509" transform="translate(444,543)"/>
</svg>
